<svg width="97" height="34" viewBox="0 0 97 34" fill="none" xmlns="http://www.w3.org/2000/svg" xmlns:xlink="http://www.w3.org/1999/xlink">
<g transform="scale(0.055412)"><path d="M236 0 L236 206 L205 227 L166 201 L163 147 L71 214 L251 334 L342 271 L342 130 L411 81 L410 513 L342 559 L342 512 L341 358 L0 597 L0 389 L31 368 L67 392 L68 460 L181 380 L1 260 L1 173 Z" fill="#F85533"/></g><path d="M28.792 19.3018C28.792 19.9578 28.904 20.5178 29.128 20.9818C29.352 21.4458 29.664 21.8298 30.064 22.1338C30.464 22.4218 30.92 22.6378 31.432 22.7818C31.96 22.9098 32.528 22.9738 33.136 22.9738C33.792 22.9738 34.352 22.9018 34.816 22.7578C35.28 22.5978 35.656 22.3978 35.944 22.1578C36.232 21.9178 36.44 21.6458 36.568 21.3418C36.696 21.0218 36.76 20.7018 36.76 20.3818C36.76 19.7258 36.608 19.2458 36.304 18.9418C36.016 18.6218 35.696 18.3978 35.344 18.2698C34.736 18.0458 34.024 17.8378 33.208 17.6458C32.408 17.4378 31.416 17.1738 30.232 16.8538C29.496 16.6618 28.88 16.4138 28.384 16.1098C27.904 15.7898 27.52 15.4378 27.232 15.0538C26.944 14.6698 26.736 14.2618 26.608 13.8298C26.496 13.3978 26.44 12.9578 26.44 12.5098C26.44 11.6458 26.616 10.9018 26.968 10.2778C27.336 9.63784 27.816 9.10984 28.408 8.69384C29 8.27784 29.672 7.97384 30.424 7.78184C31.176 7.57384 31.936 7.46984 32.704 7.46984C33.6 7.46984 34.44 7.58984 35.224 7.82984C36.024 8.05384 36.72 8.39784 37.312 8.86184C37.92 9.32584 38.4 9.90184 38.752 10.5898C39.104 11.2618 39.28 12.0458 39.28 12.9418H36.28C36.2 11.8378 35.824 11.0618 35.152 10.6138C34.48 10.1498 33.624 9.91784 32.584 9.91784C32.232 9.91784 31.872 9.95784 31.504 10.0378C31.136 10.1018 30.8 10.2218 30.496 10.3978C30.192 10.5578 29.936 10.7818 29.728 11.0698C29.536 11.3578 29.44 11.7178 29.44 12.1498C29.44 12.7578 29.624 13.2378 29.992 13.5898C30.376 13.9258 30.872 14.1818 31.48 14.3578C31.544 14.3738 31.792 14.4458 32.224 14.5738C32.672 14.6858 33.168 14.8138 33.712 14.9578C34.256 15.1018 34.784 15.2458 35.296 15.3898C35.824 15.5178 36.2 15.6138 36.424 15.6778C36.984 15.8538 37.472 16.0938 37.888 16.3978C38.304 16.7018 38.648 17.0538 38.92 17.4538C39.208 17.8378 39.416 18.2538 39.544 18.7018C39.688 19.1498 39.76 19.5978 39.76 20.0458C39.76 21.0058 39.56 21.8298 39.16 22.5178C38.776 23.1898 38.264 23.7418 37.624 24.1738C36.984 24.6058 36.256 24.9178 35.44 25.1098C34.624 25.3178 33.792 25.4218 32.944 25.4218C31.968 25.4218 31.048 25.3018 30.184 25.0618C29.32 24.8218 28.568 24.4538 27.928 23.9578C27.288 23.4618 26.776 22.8298 26.392 22.0618C26.008 21.2778 25.808 20.3578 25.792 19.3018H28.792ZM40.2745 7.87784H54.1465V10.4698H48.6985V25.0138H45.6985V10.4698H40.2745V7.87784ZM55.6531 7.87784H58.6531V15.6778L66.2851 7.87784H69.9811L63.1411 14.7178L70.4611 25.0138H66.7171L61.1011 16.8298L58.6531 19.2538V25.0138H55.6531V7.87784ZM69.6588 7.87784H72.7788L77.0748 21.4378H77.1228L81.5148 7.87784H84.5628L78.7068 25.0138H75.3708L69.6588 7.87784Z" fill="black"/>
<path opacity="0.7" d="M90.6 7.77984C91.328 7.77984 92.0093 7.91984 92.644 8.19984C93.2787 8.47051 93.8293 8.84384 94.296 9.31984C94.772 9.78651 95.1453 10.3372 95.416 10.9718C95.696 11.6065 95.836 12.2878 95.836 13.0158C95.836 13.7438 95.696 14.4252 95.416 15.0598C95.1453 15.6945 94.772 16.2498 94.296 16.7258C93.8293 17.1925 93.2787 17.5658 92.644 17.8458C92.0093 18.1165 91.328 18.2518 90.6 18.2518C89.872 18.2518 89.1907 18.1165 88.556 17.8458C87.9213 17.5658 87.366 17.1925 86.89 16.7258C86.4233 16.2498 86.05 15.6945 85.77 15.0598C85.4993 14.4252 85.364 13.7438 85.364 13.0158C85.364 12.2878 85.4993 11.6065 85.77 10.9718C86.05 10.3372 86.4233 9.78651 86.89 9.31984C87.366 8.84384 87.9213 8.47051 88.556 8.19984C89.1907 7.91984 89.872 7.77984 90.6 7.77984ZM90.614 8.24184C89.942 8.24184 89.3167 8.36317 88.738 8.60584C88.1593 8.84851 87.66 9.18451 87.24 9.61384C86.82 10.0432 86.4887 10.5518 86.246 11.1398C86.0127 11.7185 85.896 12.3438 85.896 13.0158C85.896 13.6785 86.0173 14.2992 86.26 14.8778C86.5027 15.4565 86.834 15.9652 87.254 16.4038C87.674 16.8332 88.1687 17.1738 88.738 17.4258C89.3167 17.6685 89.942 17.7898 90.614 17.7898C91.286 17.7898 91.9067 17.6638 92.476 17.4118C93.0453 17.1598 93.54 16.8192 93.96 16.3898C94.38 15.9512 94.7067 15.4425 94.94 14.8638C95.1827 14.2852 95.304 13.6645 95.304 13.0018C95.304 12.3298 95.1827 11.7045 94.94 11.1258C94.7067 10.5472 94.38 10.0478 93.96 9.62784C93.5493 9.19851 93.0547 8.86251 92.476 8.61984C91.9067 8.36784 91.286 8.24184 90.614 8.24184ZM88.696 9.92184H91.02C91.72 9.92184 92.2287 10.0665 92.546 10.3558C92.8727 10.6452 93.036 11.0698 93.036 11.6298C93.036 11.8818 92.994 12.1058 92.91 12.3018C92.826 12.4885 92.7093 12.6472 92.56 12.7778C92.42 12.9085 92.252 13.0158 92.056 13.0998C91.8693 13.1838 91.664 13.2398 91.44 13.2678L93.288 16.1098H92.7L90.838 13.2538H89.228V16.1098H88.696V9.92184ZM89.228 12.7918H90.544C90.7773 12.7918 91.0107 12.7825 91.244 12.7638C91.4773 12.7358 91.6873 12.6845 91.874 12.6098C92.0607 12.5258 92.21 12.4092 92.322 12.2598C92.4433 12.1012 92.504 11.8865 92.504 11.6158C92.504 11.3825 92.4573 11.1865 92.364 11.0278C92.2707 10.8692 92.1493 10.7432 92 10.6498C91.8507 10.5472 91.6827 10.4772 91.496 10.4398C91.3093 10.4025 91.1227 10.3838 90.936 10.3838H89.228V12.7918Z" fill="black"/>
</svg>
